{
  "accessors": [
    {
      "bufferView": 2,
      "componentType": 5126,
      "count": 483,
      "max": [
        -5927.2705078125,
        5729.0322265625,
        350.682373046875
      ],
      "min": [
        -6691.09228515625,
        4678.25634765625,
        16.7877197265625
      ],
      "type": "VEC3"
    },
    {
      "bufferView": 2,
      "byteOffset": 5796,
      "componentType": 5126,
      "count": 483,
      "max": [
        0.9872980713844299,
        0.9859521389007568,
        0.9999463558197021
      ],
      "min": [
        -0.9871242046356201,
        -0.9868529438972473,
        -0.9192407131195068
      ],
      "type": "VEC3"
    },
    {
      "bufferView": 1,
      "componentType": 5126,
      "count": 483,
      "max": [
        0.99688720703125,
        3.8818359375
      ],
      "min": [
        0.0,
        3.0080838203430176
      ],
      "type": "VEC2"
    },
    {
      "bufferView": 0,
      "componentType": 5125,
      "count": 1065,
      "type": "SCALAR"
    },
    {
      "bufferView": 2,
      "byteOffset": 11592,
      "componentType": 5126,
      "count": 1772,
      "max": [
        -6270.52294921875,
        5875.62744140625,
        1007.8125610351563
      ],
      "min": [
        -7219.10693359375,
        4461.4765625,
        14.8668212890625
      ],
      "type": "VEC3"
    },
    {
      "bufferView": 2,
      "byteOffset": 32856,
      "componentType": 5126,
      "count": 1772,
      "max": [
        0.9353235960006714,
        0.9341294765472412,
        0.9999464154243469
      ],
      "min": [
        -0.9353130459785461,
        -0.9366850256919861,
        -0.014855322428047657
      ],
      "type": "VEC3"
    },
    {
      "bufferView": 1,
      "byteOffset": 3864,
      "componentType": 5126,
      "count": 1772,
      "max": [
        0.9990234375,
        4.999391555786133
      ],
      "min": [
        -0.00031806062906980515,
        2.0
      ],
      "type": "VEC2"
    },
    {
      "bufferView": 0,
      "byteOffset": 4260,
      "componentType": 5125,
      "count": 2316,
      "type": "SCALAR"
    },
    {
      "bufferView": 2,
      "byteOffset": 54120,
      "componentType": 5126,
      "count": 1175,
      "max": [
        -5874.62353515625,
        5318.2822265625,
        249.894287109375
      ],
      "min": [
        -6362.42578125,
        4813.7666015625,
        33.321044921875
      ],
      "type": "VEC3"
    },
    {
      "bufferView": 2,
      "byteOffset": 68220,
      "componentType": 5126,
      "count": 1175,
      "max": [
        0.9839339256286621,
        0.9877416491508484,
        0.9999462366104126
      ],
      "min": [
        -0.967064619064331,
        -0.9875743389129639,
        -0.9812721014022827
      ],
      "type": "VEC3"
    },
    {
      "bufferView": 1,
      "byteOffset": 18040,
      "componentType": 5126,
      "count": 1175,
      "max": [
        0.9925054907798767,
        0.9977463483810425
      ],
      "min": [
        0.0074150883592665195,
        0.004254162311553955
      ],
      "type": "VEC2"
    },
    {
      "bufferView": 0,
      "byteOffset": 13524,
      "componentType": 5125,
      "count": 2103,
      "type": "SCALAR"
    },
    {
      "bufferView": 2,
      "byteOffset": 82320,
      "componentType": 5126,
      "count": 476,
      "max": [
        -6273.34521484375,
        5850.0859375,
        998.5115966796875
      ],
      "min": [
        -7200.23779296875,
        4470.9462890625,
        17.9769287109375
      ],
      "type": "VEC3"
    },
    {
      "bufferView": 2,
      "byteOffset": 88032,
      "componentType": 5126,
      "count": 476,
      "max": [
        0.9353038668632507,
        0.9341201186180115,
        0.9999462366104126
      ],
      "min": [
        -0.9353030323982239,
        -0.9480065107345581,
        -0.01484874077141285
      ],
      "type": "VEC3"
    },
    {
      "bufferView": 1,
      "byteOffset": 27440,
      "componentType": 5126,
      "count": 476,
      "max": [
        1.0024378299713135,
        2.0008010864257813
      ],
      "min": [
        -0.999220073223114,
        1.000570297241211
      ],
      "type": "VEC2"
    },
    {
      "bufferView": 0,
      "byteOffset": 21936,
      "componentType": 5125,
      "count": 642,
      "type": "SCALAR"
    },
    {
      "bufferView": 2,
      "byteOffset": 93744,
      "componentType": 5126,
      "count": 1096,
      "max": [
        -6179.53271484375,
        5891.88037109375,
        1107.758056640625
      ],
      "min": [
        -7296.8564453125,
        4409.7900390625,
        20.80908203125
      ],
      "type": "VEC3"
    },
    {
      "bufferView": 2,
      "byteOffset": 106896,
      "componentType": 5126,
      "count": 1096,
      "max": [
        0.9640500545501709,
        0.9341307878494263,
        0.9999671578407288
      ],
      "min": [
        -0.9659034013748169,
        -0.9341307878494263,
        -0.9749046564102173
      ],
      "type": "VEC3"
    },
    {
      "bufferView": 1,
      "byteOffset": 31248,
      "componentType": 5126,
      "count": 1096,
      "max": [
        3.3733222484588623,
        5.0000786781311035
      ],
      "min": [
        -0.9554699659347534,
        0.948021411895752
      ],
      "type": "VEC2"
    },
    {
      "bufferView": 0,
      "byteOffset": 24504,
      "componentType": 5125,
      "count": 2088,
      "type": "SCALAR"
    },
    {
      "bufferView": 2,
      "byteOffset": 120048,
      "componentType": 5126,
      "count": 8,
      "max": [
        -6593.3994140625,
        5564.734375,
        202.3719482421875
      ],
      "min": [
        -6602.43994140625,
        5553.6962890625,
        185.122802734375
      ],
      "type": "VEC3"
    },
    {
      "bufferView": 2,
      "byteOffset": 120144,
      "componentType": 5126,
      "count": 8,
      "max": [
        0.9137248992919922,
        -0.4062458872795105,
        0.012473557144403458
      ],
      "min": [
        -0.41322973370552063,
        -0.9105415344238281,
        0.008432584814727306
      ],
      "type": "VEC3"
    },
    {
      "bufferView": 1,
      "byteOffset": 40016,
      "componentType": 5126,
      "count": 8,
      "max": [
        0.2850983440876007,
        0.9949941039085388
      ],
      "min": [
        0.005528268404304981,
        0.9082363843917847
      ],
      "type": "VEC2"
    },
    {
      "bufferView": 0,
      "byteOffset": 32856,
      "componentType": 5125,
      "count": 12,
      "type": "SCALAR"
    },
    {
      "bufferView": 2,
      "byteOffset": 120240,
      "componentType": 5126,
      "count": 546,
      "max": [
        -6008.4462890625,
        5400.4443359375,
        158.173583984375
      ],
      "min": [
        -6231.552734375,
        5225.52783203125,
        9.0811767578125
      ],
      "type": "VEC3"
    },
    {
      "bufferView": 2,
      "byteOffset": 126792,
      "componentType": 5126,
      "count": 546,
      "max": [
        0.9852972030639648,
        0.9485229849815369,
        0.9881511926651001
      ],
      "min": [
        -0.9865797758102417,
        -0.9565852880477905,
        -0.9987470507621765
      ],
      "type": "VEC3"
    },
    {
      "bufferView": 1,
      "byteOffset": 40080,
      "componentType": 5126,
      "count": 546,
      "max": [
        0.9958763122558594,
        0.9958716034889221
      ],
      "min": [
        0.3072822391986847,
        0.6057291626930237
      ],
      "type": "VEC2"
    },
    {
      "bufferView": 0,
      "byteOffset": 32904,
      "componentType": 5125,
      "count": 1110,
      "type": "SCALAR"
    }
  ],
  "asset": {
    "extras": {
      "author": "noyou (https://sketchfab.com/zsm123)",
      "license": "CC-BY-4.0 (http://creativecommons.org/licenses/by/4.0/)",
      "source": "https://sketchfab.com/3d-models/chinese-house-2bb6ef8d3a5a4019b00bf86bbacd96cc",
      "title": "chinese house"
    },
    "generator": "Sketchfab-12.65.0",
    "version": "2.0"
  },
  "bufferViews": [
    {
      "buffer": 0,
      "byteLength": 37344,
      "name": "floatBufferViews",
      "target": 34963
    },
    {
      "buffer": 0,
      "byteLength": 44448,
      "byteOffset": 37344,
      "byteStride": 8,
      "name": "floatBufferViews",
      "target": 34962
    },
    {
      "buffer": 0,
      "byteLength": 133344,
      "byteOffset": 81792,
      "byteStride": 12,
      "name": "floatBufferViews",
      "target": 34962
    }
  ],
  "buffers": [
    {
      "byteLength": 215136,
      "uri": "scene.bin"
    }
  ],
  "images": [
    {
      "uri": "textures/02b79d02_dds_baseColor.png"
    },
    {
      "uri": "textures/4d160f8b_dds_baseColor.png"
    },
    {
      "uri": "textures/595db03a_dds_baseColor.png"
    },
    {
      "uri": "textures/595db03a_dds_emissive.png"
    },
    {
      "uri": "textures/b42c7fb4_dds_baseColor.png"
    },
    {
      "uri": "textures/c003ae47_dds_baseColor.png"
    },
    {
      "uri": "textures/eef9d40c_dds_baseColor.png"
    },
    {
      "uri": "textures/eef9d40c_dds_emissive.png"
    },
    {
      "uri": "textures/f3db7cb8_dds_baseColor.png"
    }
  ],
  "materials": [
    {
      "doubleSided": true,
      "name": "02b79d02_dds",
      "pbrMetallicRoughness": {
        "baseColorTexture": {
          "index": 0
        },
        "metallicFactor": 0.0,
        "roughnessFactor": 0.9822172058996108
      }
    },
    {
      "doubleSided": true,
      "emissiveTexture": {
        "index": 1
      },
      "name": "4d160f8b_dds",
      "pbrMetallicRoughness": {
        "baseColorTexture": {
          "index": 1
        },
        "metallicFactor": 0.0,
        "roughnessFactor": 0.9822172058996108
      }
    },
    {
      "alphaMode": "BLEND",
      "doubleSided": true,
      "emissiveTexture": {
        "index": 3
      },
      "name": "595db03a_dds",
      "pbrMetallicRoughness": {
        "baseColorTexture": {
          "index": 2
        },
        "metallicFactor": 0.0,
        "roughnessFactor": 0.9822172058996108
      }
    },
    {
      "doubleSided": true,
      "emissiveTexture": {
        "index": 4
      },
      "name": "b42c7fb4_dds",
      "pbrMetallicRoughness": {
        "baseColorTexture": {
          "index": 4
        },
        "metallicFactor": 0.0,
        "roughnessFactor": 0.9822172058996108
      }
    },
    {
      "doubleSided": true,
      "emissiveTexture": {
        "index": 5
      },
      "name": "c003ae47_dds",
      "pbrMetallicRoughness": {
        "baseColorTexture": {
          "index": 5
        },
        "metallicFactor": 0.0,
        "roughnessFactor": 0.9822172058996108
      }
    },
    {
      "alphaMode": "BLEND",
      "doubleSided": true,
      "emissiveTexture": {
        "index": 7
      },
      "name": "eef9d40c_dds",
      "pbrMetallicRoughness": {
        "baseColorTexture": {
          "index": 6
        },
        "metallicFactor": 0.0,
        "roughnessFactor": 0.9822172058996108
      }
    },
    {
      "alphaMode": "BLEND",
      "doubleSided": true,
      "emissiveTexture": {
        "index": 0
      },
      "name": "f3db7cb8_dds",
      "pbrMetallicRoughness": {
        "baseColorTexture": {
          "index": 8
        },
        "metallicFactor": 0.0,
        "roughnessFactor": 0.9822172058996108
      }
    }
  ],
  "meshes": [
    {
      "name": "Object_0",
      "primitives": [
        {
          "attributes": {
            "NORMAL": 1,
            "POSITION": 0,
            "TEXCOORD_0": 2
          },
          "indices": 3,
          "material": 0,
          "mode": 4
        }
      ]
    },
    {
      "name": "Object_1",
      "primitives": [
        {
          "attributes": {
            "NORMAL": 5,
            "POSITION": 4,
            "TEXCOORD_0": 6
          },
          "indices": 7,
          "material": 1,
          "mode": 4
        }
      ]
    },
    {
      "name": "Object_2",
      "primitives": [
        {
          "attributes": {
            "NORMAL": 9,
            "POSITION": 8,
            "TEXCOORD_0": 10
          },
          "indices": 11,
          "material": 2,
          "mode": 4
        }
      ]
    },
    {
      "name": "Object_3",
      "primitives": [
        {
          "attributes": {
            "NORMAL": 13,
            "POSITION": 12,
            "TEXCOORD_0": 14
          },
          "indices": 15,
          "material": 3,
          "mode": 4
        }
      ]
    },
    {
      "name": "Object_4",
      "primitives": [
        {
          "attributes": {
            "NORMAL": 17,
            "POSITION": 16,
            "TEXCOORD_0": 18
          },
          "indices": 19,
          "material": 4,
          "mode": 4
        }
      ]
    },
    {
      "name": "Object_5",
      "primitives": [
        {
          "attributes": {
            "NORMAL": 21,
            "POSITION": 20,
            "TEXCOORD_0": 22
          },
          "indices": 23,
          "material": 5,
          "mode": 4
        }
      ]
    },
    {
      "name": "Object_6",
      "primitives": [
        {
          "attributes": {
            "NORMAL": 25,
            "POSITION": 24,
            "TEXCOORD_0": 26
          },
          "indices": 27,
          "material": 6,
          "mode": 4
        }
      ]
    }
  ],
  "nodes": [
    {
      "children": [
        1
      ],
      "matrix": [
        1.0,
        0.0,
        0.0,
        0.0,
        0.0,
        2.220446049250313e-16,
        -1.0,
        0.0,
        0.0,
        1.0,
        2.220446049250313e-16,
        0.0,
        0.0,
        0.0,
        0.0,
        1.0
      ],
      "name": "Sketchfab_model"
    },
    {
      "children": [
        2,
        3,
        4,
        5,
        6,
        7,
        8
      ],
      "name": "1.obj.cleaner.materialmerger.gles"
    },
    {
      "mesh": 0,
      "name": "Object_2"
    },
    {
      "mesh": 1,
      "name": "Object_3"
    },
    {
      "mesh": 2,
      "name": "Object_4"
    },
    {
      "mesh": 3,
      "name": "Object_5"
    },
    {
      "mesh": 4,
      "name": "Object_6"
    },
    {
      "mesh": 5,
      "name": "Object_7"
    },
    {
      "mesh": 6,
      "name": "Object_8"
    }
  ],
  "samplers": [
    {
      "magFilter": 9729,
      "minFilter": 9987,
      "wrapS": 10497,
      "wrapT": 10497
    }
  ],
  "scene": 0,
  "scenes": [
    {
      "name": "Sketchfab_Scene",
      "nodes": [
        0
      ]
    }
  ],
  "textures": [
    {
      "sampler": 0,
      "source": 0
    },
    {
      "sampler": 0,
      "source": 1
    },
    {
      "sampler": 0,
      "source": 2
    },
    {
      "sampler": 0,
      "source": 3
    },
    {
      "sampler": 0,
      "source": 4
    },
    {
      "sampler": 0,
      "source": 5
    },
    {
      "sampler": 0,
      "source": 6
    },
    {
      "sampler": 0,
      "source": 7
    },
    {
      "sampler": 0,
      "source": 8
    }
  ]
}
