{
	"asset":{
		"generator":"Khronos glTF Blender I/O v3.5.30",
		"version":"2.0"
	},
	"scene":0,
	"scenes":[
		{
			"name":"Scene",
			"nodes":[
				1,
				3,
				5,
				7,
				9,
				11,
				13,
				15,
				17,
				19,
				21,
				23,
				25,
				27,
				29,
				31,
				33,
				35,
				37,
				39,
				41,
				43
			]
		}
	],
	"nodes":[
		{
			"mesh":0,
			"name":"Obj3d66-1625299-186-495",
			"scale":[
				0.0010000000474974513,
				0.0010000000474974513,
				0.0009999999310821295
			]
		},
		{
			"children":[
				0
			],
			"name":"Node_371",
			"rotation":[
				-0.7070983648300171,
				-0.003464627079665661,
				-0.0034646273124963045,
				0.7070983052253723
			],
			"scale":[
				16.956296920776367,
				16.956298828125,
				16.956300735473633
			],
			"translation":[
				24.665058135986328,
				-0.028670242056250572,
				2.8716659545898438
			]
		},
		{
			"mesh":1,
			"name":"Obj3d66-1625299-187-677",
			"scale":[
				0.0010000000474974513,
				0.0010000000474974513,
				0.0009999999310821295
			]
		},
		{
			"children":[
				2
			],
			"name":"Node_373",
			"rotation":[
				-0.7070983648300171,
				-0.003464627079665661,
				-0.0034646273124963045,
				0.7070983052253723
			],
			"scale":[
				16.956296920776367,
				16.956298828125,
				16.956300735473633
			],
			"translation":[
				24.665058135986328,
				-0.028670242056250572,
				2.8716659545898438
			]
		},
		{
			"mesh":2,
			"name":"Obj3d66-1625299-188-318",
			"scale":[
				0.0010000000474974513,
				0.0010000000474974513,
				0.0009999999310821295
			]
		},
		{
			"children":[
				4
			],
			"name":"Node_375",
			"rotation":[
				-0.7070983648300171,
				-0.003464627079665661,
				-0.0034646273124963045,
				0.7070983052253723
			],
			"scale":[
				16.956296920776367,
				16.956298828125,
				16.956300735473633
			],
			"translation":[
				24.665058135986328,
				-0.028670242056250572,
				2.8716659545898438
			]
		},
		{
			"mesh":3,
			"name":"Obj3d66-1625299-189-594",
			"scale":[
				0.0010000000474974513,
				0.0010000000474974513,
				0.0009999999310821295
			]
		},
		{
			"children":[
				6
			],
			"name":"Node_377",
			"rotation":[
				-0.7070983648300171,
				-0.003464627079665661,
				-0.0034646273124963045,
				0.7070983052253723
			],
			"scale":[
				16.956296920776367,
				16.956298828125,
				16.956300735473633
			],
			"translation":[
				24.665058135986328,
				-0.028670242056250572,
				2.8716659545898438
			]
		},
		{
			"mesh":4,
			"name":"Obj3d66-1625299-190-524",
			"scale":[
				0.0010000000474974513,
				0.0010000000474974513,
				0.0009999999310821295
			]
		},
		{
			"children":[
				8
			],
			"name":"Node_379",
			"rotation":[
				-0.7070983648300171,
				-0.003464627079665661,
				-0.0034646273124963045,
				0.7070983052253723
			],
			"scale":[
				16.956296920776367,
				16.956298828125,
				16.956300735473633
			],
			"translation":[
				24.665058135986328,
				-0.028670242056250572,
				2.8716659545898438
			]
		},
		{
			"mesh":0,
			"name":"Obj3d66-1625299-186-495.001",
			"scale":[
				0.0010000000474974513,
				0.0010000000474974513,
				0.0009999999310821295
			]
		},
		{
			"children":[
				10
			],
			"name":"Node_381",
			"rotation":[
				-0.7070983648300171,
				-0.003464627079665661,
				-0.0034646273124963045,
				0.7070983052253723
			],
			"scale":[
				16.956296920776367,
				16.956298828125,
				16.956300735473633
			],
			"translation":[
				19.147220611572266,
				-0.028670242056250572,
				2.817626953125
			]
		},
		{
			"mesh":2,
			"name":"Obj3d66-1625299-188-318.001",
			"scale":[
				0.0010000000474974513,
				0.0010000000474974513,
				0.0009999999310821295
			]
		},
		{
			"children":[
				12
			],
			"name":"Node_383",
			"rotation":[
				-0.7070983648300171,
				-0.003464627079665661,
				-0.0034646273124963045,
				0.7070983052253723
			],
			"scale":[
				16.956296920776367,
				16.956298828125,
				16.956300735473633
			],
			"translation":[
				19.147220611572266,
				-0.028670242056250572,
				2.817626953125
			]
		},
		{
			"mesh":3,
			"name":"Obj3d66-1625299-189-594.001",
			"scale":[
				0.0010000000474974513,
				0.0010000000474974513,
				0.0009999999310821295
			]
		},
		{
			"children":[
				14
			],
			"name":"Node_385",
			"rotation":[
				-0.7070983648300171,
				-0.003464627079665661,
				-0.0034646273124963045,
				0.7070983052253723
			],
			"scale":[
				16.956296920776367,
				16.956298828125,
				16.956300735473633
			],
			"translation":[
				19.147220611572266,
				-0.028670242056250572,
				2.817626953125
			]
		},
		{
			"mesh":1,
			"name":"Obj3d66-1625299-187-677.001",
			"scale":[
				0.0010000000474974513,
				0.0010000000474974513,
				0.0009999999310821295
			]
		},
		{
			"children":[
				16
			],
			"name":"Node_387",
			"rotation":[
				-0.7070983648300171,
				-0.003464627079665661,
				-0.0034646273124963045,
				0.7070983052253723
			],
			"scale":[
				16.956296920776367,
				16.956298828125,
				16.956300735473633
			],
			"translation":[
				19.147220611572266,
				-0.028670242056250572,
				2.817626953125
			]
		},
		{
			"mesh":4,
			"name":"Obj3d66-1625299-190-524.001",
			"scale":[
				0.0010000000474974513,
				0.0010000000474974513,
				0.0009999999310821295
			]
		},
		{
			"children":[
				18
			],
			"name":"Node_389",
			"rotation":[
				-0.7070983648300171,
				-0.003464627079665661,
				-0.0034646273124963045,
				0.7070983052253723
			],
			"scale":[
				16.956296920776367,
				16.956298828125,
				16.956300735473633
			],
			"translation":[
				19.147220611572266,
				-0.028670242056250572,
				2.817626953125
			]
		},
		{
			"mesh":1,
			"name":"Obj3d66-1625299-187-677.002",
			"scale":[
				0.0010000000474974513,
				0.0010000000474974513,
				0.0009999999310821295
			]
		},
		{
			"children":[
				20
			],
			"name":"Node_391",
			"rotation":[
				-0.7070983648300171,
				-0.003464627079665661,
				-0.0034646273124963045,
				0.7070983052253723
			],
			"scale":[
				16.956296920776367,
				16.956298828125,
				16.956300735473633
			],
			"translation":[
				21.90605926513672,
				-0.028670242056250572,
				2.8446426391601562
			]
		},
		{
			"mesh":0,
			"name":"Obj3d66-1625299-186-495.002",
			"scale":[
				0.0010000000474974513,
				0.0010000000474974513,
				0.0009999999310821295
			]
		},
		{
			"children":[
				22
			],
			"name":"Node_393",
			"rotation":[
				-0.7070983648300171,
				-0.003464627079665661,
				-0.0034646273124963045,
				0.7070983052253723
			],
			"scale":[
				16.956296920776367,
				16.956298828125,
				16.956300735473633
			],
			"translation":[
				21.90605926513672,
				-0.028670242056250572,
				2.8446426391601562
			]
		},
		{
			"mesh":2,
			"name":"Obj3d66-1625299-188-318.002",
			"scale":[
				0.0010000000474974513,
				0.0010000000474974513,
				0.0009999999310821295
			]
		},
		{
			"children":[
				24
			],
			"name":"Node_395",
			"rotation":[
				-0.7070983648300171,
				-0.003464627079665661,
				-0.0034646273124963045,
				0.7070983052253723
			],
			"scale":[
				16.956296920776367,
				16.956298828125,
				16.956300735473633
			],
			"translation":[
				21.90605926513672,
				-0.028670242056250572,
				2.8446426391601562
			]
		},
		{
			"mesh":3,
			"name":"Obj3d66-1625299-189-594.002",
			"scale":[
				0.0010000000474974513,
				0.0010000000474974513,
				0.0009999999310821295
			]
		},
		{
			"children":[
				26
			],
			"name":"Node_397",
			"rotation":[
				-0.7070983648300171,
				-0.003464627079665661,
				-0.0034646273124963045,
				0.7070983052253723
			],
			"scale":[
				16.956296920776367,
				16.956298828125,
				16.956300735473633
			],
			"translation":[
				21.90605926513672,
				-0.028670242056250572,
				2.8446426391601562
			]
		},
		{
			"mesh":4,
			"name":"Obj3d66-1625299-190-524.002",
			"scale":[
				0.0010000000474974513,
				0.0010000000474974513,
				0.0009999999310821295
			]
		},
		{
			"children":[
				28
			],
			"name":"Node_399",
			"rotation":[
				-0.7070983648300171,
				-0.003464627079665661,
				-0.0034646273124963045,
				0.7070983052253723
			],
			"scale":[
				16.956296920776367,
				16.956298828125,
				16.956300735473633
			],
			"translation":[
				21.90605926513672,
				-0.028670242056250572,
				2.8446426391601562
			]
		},
		{
			"mesh":1,
			"name":"Obj3d66-1625299-187-677.003",
			"scale":[
				0.0010000000474974513,
				0.0010000000474974513,
				0.0009999999310821295
			]
		},
		{
			"children":[
				30
			],
			"name":"Node_401",
			"rotation":[
				-0.7070983648300171,
				-0.003464627079665661,
				-0.0034646273124963045,
				0.7070983052253723
			],
			"scale":[
				16.956296920776367,
				16.956298828125,
				16.956300735473633
			],
			"translation":[
				27.42403793334961,
				-0.028670242056250572,
				2.8987045288085938
			]
		},
		{
			"mesh":0,
			"name":"Obj3d66-1625299-186-495.003",
			"scale":[
				0.0010000000474974513,
				0.0010000000474974513,
				0.0009999999310821295
			]
		},
		{
			"children":[
				32
			],
			"name":"Node_403",
			"rotation":[
				-0.7070983648300171,
				-0.003464627079665661,
				-0.0034646273124963045,
				0.7070983052253723
			],
			"scale":[
				16.956296920776367,
				16.956298828125,
				16.956300735473633
			],
			"translation":[
				27.42403793334961,
				-0.028670242056250572,
				2.8987045288085938
			]
		},
		{
			"mesh":2,
			"name":"Obj3d66-1625299-188-318.003",
			"scale":[
				0.0010000000474974513,
				0.0010000000474974513,
				0.0009999999310821295
			]
		},
		{
			"children":[
				34
			],
			"name":"Node_405",
			"rotation":[
				-0.7070983648300171,
				-0.003464627079665661,
				-0.0034646273124963045,
				0.7070983052253723
			],
			"scale":[
				16.956296920776367,
				16.956298828125,
				16.956300735473633
			],
			"translation":[
				27.42403793334961,
				-0.028670242056250572,
				2.8987045288085938
			]
		},
		{
			"mesh":3,
			"name":"Obj3d66-1625299-189-594.003",
			"scale":[
				0.0010000000474974513,
				0.0010000000474974513,
				0.0009999999310821295
			]
		},
		{
			"children":[
				36
			],
			"name":"Node_407",
			"rotation":[
				-0.7070983648300171,
				-0.003464627079665661,
				-0.0034646273124963045,
				0.7070983052253723
			],
			"scale":[
				16.956296920776367,
				16.956298828125,
				16.956300735473633
			],
			"translation":[
				27.42403793334961,
				-0.028670242056250572,
				2.8987045288085938
			]
		},
		{
			"mesh":4,
			"name":"Obj3d66-1625299-190-524.003",
			"scale":[
				0.0010000000474974513,
				0.0010000000474974513,
				0.0009999999310821295
			]
		},
		{
			"children":[
				38
			],
			"name":"Node_409",
			"rotation":[
				-0.7070983648300171,
				-0.003464627079665661,
				-0.0034646273124963045,
				0.7070983052253723
			],
			"scale":[
				16.956296920776367,
				16.956298828125,
				16.956300735473633
			],
			"translation":[
				27.42403793334961,
				-0.028670242056250572,
				2.8987045288085938
			]
		},
		{
			"mesh":1,
			"name":"Obj3d66-1625299-187-677.004",
			"scale":[
				0.0010000000474974513,
				0.0010000000474974513,
				0.0009999999310821295
			]
		},
		{
			"children":[
				40
			],
			"name":"Node_411",
			"rotation":[
				-0.7070983648300171,
				-0.003464627079665661,
				-0.0034646273124963045,
				0.7070983052253723
			],
			"scale":[
				16.956296920776367,
				16.956298828125,
				16.956300735473633
			],
			"translation":[
				30.183021545410156,
				-0.028670242056250572,
				2.9257659912109375
			]
		},
		{
			"mesh":4,
			"name":"Obj3d66-1625299-190-524.004",
			"scale":[
				0.0010000000474974513,
				0.0010000000474974513,
				0.0009999999310821295
			]
		},
		{
			"children":[
				42
			],
			"name":"Node_413",
			"rotation":[
				-0.7070983648300171,
				-0.003464627079665661,
				-0.0034646273124963045,
				0.7070983052253723
			],
			"scale":[
				16.956296920776367,
				16.956298828125,
				16.956300735473633
			],
			"translation":[
				30.183021545410156,
				-0.028670242056250572,
				2.9257659912109375
			]
		}
	],
	"materials":[
		{
			"name":"adskMatPhysicalMaterial_15",
			"pbrMetallicRoughness":{
				"baseColorFactor":[
					0.5,
					0.5,
					0.5,
					1
				],
				"metallicFactor":0,
				"roughnessFactor":0
			}
		},
		{
			"name":"adskMatPhysicalMaterial_16",
			"pbrMetallicRoughness":{
				"baseColorFactor":[
					0.5,
					0.5,
					0.5,
					1
				],
				"metallicFactor":0,
				"roughnessFactor":0
			}
		}
	],
	"meshes":[
		{
			"name":"Obj3d66-1625299-186-495",
			"primitives":[
				{
					"attributes":{
						"POSITION":0,
						"NORMAL":1
					},
					"indices":2,
					"material":0
				}
			]
		},
		{
			"name":"Obj3d66-1625299-187-677",
			"primitives":[
				{
					"attributes":{
						"POSITION":3,
						"NORMAL":4
					},
					"indices":5,
					"material":0
				}
			]
		},
		{
			"name":"Obj3d66-1625299-188-318",
			"primitives":[
				{
					"attributes":{
						"POSITION":6,
						"NORMAL":7
					},
					"indices":8,
					"material":1
				}
			]
		},
		{
			"name":"Obj3d66-1625299-189-594",
			"primitives":[
				{
					"attributes":{
						"POSITION":9,
						"NORMAL":10
					},
					"indices":11,
					"material":0
				}
			]
		},
		{
			"name":"Obj3d66-1625299-190-524",
			"primitives":[
				{
					"attributes":{
						"POSITION":12,
						"NORMAL":13
					},
					"indices":14,
					"material":1
				}
			]
		}
	],
	"accessors":[
		{
			"bufferView":0,
			"componentType":5126,
			"count":2039,
			"max":[
				71.7796630859375,
				15.787293434143066,
				8.346515655517578
			],
			"min":[
				39.78129959106445,
				-23.69677734375,
				3.165119171142578
			],
			"type":"VEC3"
		},
		{
			"bufferView":1,
			"componentType":5126,
			"count":2039,
			"type":"VEC3"
		},
		{
			"bufferView":2,
			"componentType":5123,
			"count":2964,
			"type":"SCALAR"
		},
		{
			"bufferView":3,
			"componentType":5126,
			"count":2063,
			"max":[
				-58.80744934082031,
				15.787293434143066,
				8.346515655517578
			],
			"min":[
				-90.8058090209961,
				-23.69677734375,
				3.165119171142578
			],
			"type":"VEC3"
		},
		{
			"bufferView":4,
			"componentType":5126,
			"count":2063,
			"type":"VEC3"
		},
		{
			"bufferView":5,
			"componentType":5123,
			"count":2964,
			"type":"SCALAR"
		},
		{
			"bufferView":6,
			"componentType":5126,
			"count":2016,
			"max":[
				39.13289260864258,
				15.787293434143066,
				8.346515655517578
			],
			"min":[
				7.134530067443848,
				-23.69677734375,
				3.165119171142578
			],
			"type":"VEC3"
		},
		{
			"bufferView":7,
			"componentType":5126,
			"count":2016,
			"type":"VEC3"
		},
		{
			"bufferView":8,
			"componentType":5123,
			"count":2964,
			"type":"SCALAR"
		},
		{
			"bufferView":9,
			"componentType":5126,
			"count":2036,
			"max":[
				6.486118316650391,
				15.787293434143066,
				8.346515655517578
			],
			"min":[
				-25.51224136352539,
				-23.69677734375,
				3.165119171142578
			],
			"type":"VEC3"
		},
		{
			"bufferView":10,
			"componentType":5126,
			"count":2036,
			"type":"VEC3"
		},
		{
			"bufferView":11,
			"componentType":5123,
			"count":2964,
			"type":"SCALAR"
		},
		{
			"bufferView":12,
			"componentType":5126,
			"count":2047,
			"max":[
				-26.160654067993164,
				15.787293434143066,
				8.346515655517578
			],
			"min":[
				-58.15901565551758,
				-23.69677734375,
				3.165119171142578
			],
			"type":"VEC3"
		},
		{
			"bufferView":13,
			"componentType":5126,
			"count":2047,
			"type":"VEC3"
		},
		{
			"bufferView":14,
			"componentType":5123,
			"count":2964,
			"type":"SCALAR"
		}
	],
	"bufferViews":[
		{
			"buffer":0,
			"byteLength":24468,
			"byteOffset":0,
			"target":34962
		},
		{
			"buffer":0,
			"byteLength":24468,
			"byteOffset":24468,
			"target":34962
		},
		{
			"buffer":0,
			"byteLength":5928,
			"byteOffset":48936,
			"target":34963
		},
		{
			"buffer":0,
			"byteLength":24756,
			"byteOffset":54864,
			"target":34962
		},
		{
			"buffer":0,
			"byteLength":24756,
			"byteOffset":79620,
			"target":34962
		},
		{
			"buffer":0,
			"byteLength":5928,
			"byteOffset":104376,
			"target":34963
		},
		{
			"buffer":0,
			"byteLength":24192,
			"byteOffset":110304,
			"target":34962
		},
		{
			"buffer":0,
			"byteLength":24192,
			"byteOffset":134496,
			"target":34962
		},
		{
			"buffer":0,
			"byteLength":5928,
			"byteOffset":158688,
			"target":34963
		},
		{
			"buffer":0,
			"byteLength":24432,
			"byteOffset":164616,
			"target":34962
		},
		{
			"buffer":0,
			"byteLength":24432,
			"byteOffset":189048,
			"target":34962
		},
		{
			"buffer":0,
			"byteLength":5928,
			"byteOffset":213480,
			"target":34963
		},
		{
			"buffer":0,
			"byteLength":24564,
			"byteOffset":219408,
			"target":34962
		},
		{
			"buffer":0,
			"byteLength":24564,
			"byteOffset":243972,
			"target":34962
		},
		{
			"buffer":0,
			"byteLength":5928,
			"byteOffset":268536,
			"target":34963
		}
	],
	"buffers":[
		{
			"byteLength":274464,
			"uri":"data:application/octet-stream;base64,"
		}
	]
}
